<?xml version="1.0" encoding="UTF-8" standalone="no"?>
<!DOCTYPE svg PUBLIC "-//W3C//DTD SVG 1.1//EN"
 "http://www.w3.org/Graphics/SVG/1.1/DTD/svg11.dtd">
<!-- Generated by graphviz version 2.43.0 (0)
 -->
<!-- Title: dependency&#45;cruiser output Pages: 1 -->
<svg width="319pt" height="1130pt"
 viewBox="0.00 0.00 319.00 1130.00" xmlns="http://www.w3.org/2000/svg" xmlns:xlink="http://www.w3.org/1999/xlink">
<g id="graph0" class="graph" transform="scale(1 1) rotate(0) translate(4 1126)">
<title>dependency&#45;cruiser output</title>
<polygon fill="white" stroke="transparent" points="-4,4 -4,-1126 315,-1126 315,4 -4,4"/>
<g id="clust1" class="cluster">
<title>cluster_src</title>
<path fill="#ffffff" stroke="black" stroke-width="2" d="M20,-8C20,-8 291,-8 291,-8 297,-8 303,-14 303,-20 303,-20 303,-1102 303,-1102 303,-1108 297,-1114 291,-1114 291,-1114 20,-1114 20,-1114 14,-1114 8,-1108 8,-1102 8,-1102 8,-20 8,-20 8,-14 14,-8 20,-8"/>
<text text-anchor="middle" x="155.5" y="-1102.8" font-family="Helvetica,sans-Serif" font-weight="bold" font-size="9.00">src</text>
</g>
<g id="clust2" class="cluster">
<title>cluster_src/assets</title>
<path fill="#ffffff" stroke="black" stroke-width="2" d="M187,-1006C187,-1006 248,-1006 248,-1006 254,-1006 260,-1012 260,-1018 260,-1018 260,-1076 260,-1076 260,-1082 254,-1088 248,-1088 248,-1088 187,-1088 187,-1088 181,-1088 175,-1082 175,-1076 175,-1076 175,-1018 175,-1018 175,-1012 181,-1006 187,-1006"/>
<text text-anchor="middle" x="217.5" y="-1076.8" font-family="Helvetica,sans-Serif" font-weight="bold" font-size="9.00">assets</text>
</g>
<g id="clust3" class="cluster">
<title>cluster_src/components</title>
<path fill="#ffffff" stroke="black" stroke-width="2" d="M28,-312C28,-312 283,-312 283,-312 289,-312 295,-318 295,-324 295,-324 295,-986 295,-986 295,-992 289,-998 283,-998 283,-998 28,-998 28,-998 22,-998 16,-992 16,-986 16,-986 16,-324 16,-324 16,-318 22,-312 28,-312"/>
<text text-anchor="middle" x="155.5" y="-986.8" font-family="Helvetica,sans-Serif" font-weight="bold" font-size="9.00">components</text>
</g>
<g id="clust4" class="cluster">
<title>cluster_src/components/generics</title>
<path fill="#ffffff" stroke="black" stroke-width="2" d="M160,-320C160,-320 275,-320 275,-320 281,-320 287,-326 287,-332 287,-332 287,-960 287,-960 287,-966 281,-972 275,-972 275,-972 160,-972 160,-972 154,-972 148,-966 148,-960 148,-960 148,-332 148,-332 148,-326 154,-320 160,-320"/>
<text text-anchor="middle" x="217.5" y="-960.8" font-family="Helvetica,sans-Serif" font-weight="bold" font-size="9.00">generics</text>
</g>
<g id="clust5" class="cluster">
<title>cluster_src/components/generics/svg</title>
<path fill="#ffffff" stroke="black" stroke-width="2" d="M168,-744C168,-744 267,-744 267,-744 273,-744 279,-750 279,-756 279,-756 279,-934 279,-934 279,-940 273,-946 267,-946 267,-946 168,-946 168,-946 162,-946 156,-940 156,-934 156,-934 156,-756 156,-756 156,-750 162,-744 168,-744"/>
<text text-anchor="middle" x="217.5" y="-934.8" font-family="Helvetica,sans-Serif" font-weight="bold" font-size="9.00">svg</text>
</g>
<g id="clust6" class="cluster">
<title>cluster_src/components/home</title>
<path fill="#ffffff" stroke="black" stroke-width="2" d="M36,-770C36,-770 128,-770 128,-770 134,-770 140,-776 140,-782 140,-782 140,-960 140,-960 140,-966 134,-972 128,-972 128,-972 36,-972 36,-972 30,-972 24,-966 24,-960 24,-960 24,-782 24,-782 24,-776 30,-770 36,-770"/>
<text text-anchor="middle" x="82" y="-960.8" font-family="Helvetica,sans-Serif" font-weight="bold" font-size="9.00">home</text>
</g>
<g id="clust7" class="cluster">
<title>cluster_src/images</title>
<path fill="#ffffff" stroke="black" stroke-width="2" d="M181,-222C181,-222 254,-222 254,-222 260,-222 266,-228 266,-234 266,-234 266,-262 266,-262 266,-268 260,-274 254,-274 254,-274 181,-274 181,-274 175,-274 169,-268 169,-262 169,-262 169,-234 169,-234 169,-228 175,-222 181,-222"/>
<text text-anchor="middle" x="217.5" y="-262.8" font-family="Helvetica,sans-Serif" font-weight="bold" font-size="9.00">images</text>
</g>
<g id="clust8" class="cluster">
<title>cluster_src/pages</title>
<path fill="#ffffff" stroke="black" stroke-width="2" d="M51,-102C51,-102 113,-102 113,-102 119,-102 125,-108 125,-114 125,-114 125,-292 125,-292 125,-298 119,-304 113,-304 113,-304 51,-304 51,-304 45,-304 39,-298 39,-292 39,-292 39,-114 39,-114 39,-108 45,-102 51,-102"/>
<text text-anchor="middle" x="82" y="-292.8" font-family="Helvetica,sans-Serif" font-weight="bold" font-size="9.00">pages</text>
</g>
<g id="clust9" class="cluster">
<title>cluster_src/utils</title>
<path fill="#ffffff" stroke="black" stroke-width="2" d="M59,-42C59,-42 105,-42 105,-42 111,-42 117,-48 117,-54 117,-54 117,-82 117,-82 117,-88 111,-94 105,-94 105,-94 59,-94 59,-94 53,-94 47,-88 47,-82 47,-82 47,-54 47,-54 47,-48 53,-42 59,-42"/>
<text text-anchor="middle" x="82" y="-82.8" font-family="Helvetica,sans-Serif" font-weight="bold" font-size="9.00">utils</text>
</g>
<!-- src/assets/center.png -->
<g id="node1" class="node">
<title>src/assets/center.png</title>
<g id="a_node1"><a xlink:href="src/assets/center.png" xlink:title="center.png">
<path fill="#ffffcc" stroke="black" d="M244.5,-1062C244.5,-1062 190.5,-1062 190.5,-1062 187.5,-1062 184.5,-1059 184.5,-1056 184.5,-1056 184.5,-1050 184.5,-1050 184.5,-1047 187.5,-1044 190.5,-1044 190.5,-1044 244.5,-1044 244.5,-1044 247.5,-1044 250.5,-1047 250.5,-1050 250.5,-1050 250.5,-1056 250.5,-1056 250.5,-1059 247.5,-1062 244.5,-1062"/>
<text text-anchor="middle" x="217.5" y="-1050.8" font-family="Helvetica,sans-Serif" font-size="9.00">center.png</text>
</a>
</g>
</g>
<!-- src/assets/pointer.png -->
<g id="node2" class="node">
<title>src/assets/pointer.png</title>
<g id="a_node2"><a xlink:href="src/assets/pointer.png" xlink:title="pointer.png">
<path fill="#ffffcc" stroke="black" d="M246,-1032C246,-1032 189,-1032 189,-1032 186,-1032 183,-1029 183,-1026 183,-1026 183,-1020 183,-1020 183,-1017 186,-1014 189,-1014 189,-1014 246,-1014 246,-1014 249,-1014 252,-1017 252,-1020 252,-1020 252,-1026 252,-1026 252,-1029 249,-1032 246,-1032"/>
<text text-anchor="middle" x="217.5" y="-1020.8" font-family="Helvetica,sans-Serif" font-size="9.00">pointer.png</text>
</a>
</g>
</g>
<!-- src/components/generics/button.tsx -->
<g id="node3" class="node">
<title>src/components/generics/button.tsx</title>
<g id="a_node3"><a xlink:href="src/components/generics/button.tsx" xlink:title="button.tsx">
<path fill="#bbfeff" stroke="black" d="M243.5,-736C243.5,-736 191.5,-736 191.5,-736 188.5,-736 185.5,-733 185.5,-730 185.5,-730 185.5,-724 185.5,-724 185.5,-721 188.5,-718 191.5,-718 191.5,-718 243.5,-718 243.5,-718 246.5,-718 249.5,-721 249.5,-724 249.5,-724 249.5,-730 249.5,-730 249.5,-733 246.5,-736 243.5,-736"/>
<text text-anchor="middle" x="217.5" y="-724.8" font-family="Helvetica,sans-Serif" font-size="9.00">button.tsx</text>
</a>
</g>
</g>
<!-- src/components/generics/centered.tsx -->
<g id="node4" class="node">
<title>src/components/generics/centered.tsx</title>
<g id="a_node4"><a xlink:href="src/components/generics/centered.tsx" xlink:title="centered.tsx">
<path fill="#bbfeff" stroke="black" d="M248.5,-706C248.5,-706 186.5,-706 186.5,-706 183.5,-706 180.5,-703 180.5,-700 180.5,-700 180.5,-694 180.5,-694 180.5,-691 183.5,-688 186.5,-688 186.5,-688 248.5,-688 248.5,-688 251.5,-688 254.5,-691 254.5,-694 254.5,-694 254.5,-700 254.5,-700 254.5,-703 251.5,-706 248.5,-706"/>
<text text-anchor="middle" x="217.5" y="-694.8" font-family="Helvetica,sans-Serif" font-size="9.00">centered.tsx</text>
</a>
</g>
</g>
<!-- src/components/generics/commerceInfoBox.tsx -->
<g id="node5" class="node">
<title>src/components/generics/commerceInfoBox.tsx</title>
<g id="a_node5"><a xlink:href="src/components/generics/commerceInfoBox.tsx" xlink:title="commerceInfoBox.tsx">
<path fill="#ccffcc" stroke="black" d="M269,-676C269,-676 166,-676 166,-676 163,-676 160,-673 160,-670 160,-670 160,-664 160,-664 160,-661 163,-658 166,-658 166,-658 269,-658 269,-658 272,-658 275,-661 275,-664 275,-664 275,-670 275,-670 275,-673 272,-676 269,-676"/>
<text text-anchor="middle" x="217.5" y="-664.8" font-family="Helvetica,sans-Serif" font-size="9.00">commerceInfoBox.tsx</text>
</a>
</g>
</g>
<!-- src/components/generics/dateInfoBox.tsx -->
<g id="node6" class="node">
<title>src/components/generics/dateInfoBox.tsx</title>
<g id="a_node6"><a xlink:href="src/components/generics/dateInfoBox.tsx" xlink:title="dateInfoBox.tsx">
<path fill="#ccffcc" stroke="black" d="M255,-646C255,-646 180,-646 180,-646 177,-646 174,-643 174,-640 174,-640 174,-634 174,-634 174,-631 177,-628 180,-628 180,-628 255,-628 255,-628 258,-628 261,-631 261,-634 261,-634 261,-640 261,-640 261,-643 258,-646 255,-646"/>
<text text-anchor="middle" x="217.5" y="-634.8" font-family="Helvetica,sans-Serif" font-size="9.00">dateInfoBox.tsx</text>
</a>
</g>
</g>
<!-- src/components/generics/endScreenWrapper.tsx -->
<g id="node7" class="node">
<title>src/components/generics/endScreenWrapper.tsx</title>
<g id="a_node7"><a xlink:href="src/components/generics/endScreenWrapper.tsx" xlink:title="endScreenWrapper.tsx">
<path fill="#ccffcc" stroke="black" d="M271,-616C271,-616 164,-616 164,-616 161,-616 158,-613 158,-610 158,-610 158,-604 158,-604 158,-601 161,-598 164,-598 164,-598 271,-598 271,-598 274,-598 277,-601 277,-604 277,-604 277,-610 277,-610 277,-613 274,-616 271,-616"/>
<text text-anchor="middle" x="217.5" y="-604.8" font-family="Helvetica,sans-Serif" font-size="9.00">endScreenWrapper.tsx</text>
</a>
</g>
</g>
<!-- src/components/generics/footer.tsx -->
<g id="node8" class="node">
<title>src/components/generics/footer.tsx</title>
<g id="a_node8"><a xlink:href="src/components/generics/footer.tsx" xlink:title="footer.tsx">
<path fill="#ccffcc" stroke="black" d="M241,-586C241,-586 194,-586 194,-586 191,-586 188,-583 188,-580 188,-580 188,-574 188,-574 188,-571 191,-568 194,-568 194,-568 241,-568 241,-568 244,-568 247,-571 247,-574 247,-574 247,-580 247,-580 247,-583 244,-586 241,-586"/>
<text text-anchor="middle" x="217.5" y="-574.8" font-family="Helvetica,sans-Serif" font-size="9.00">footer.tsx</text>
</a>
</g>
</g>
<!-- src/components/generics/infoPage.tsx -->
<g id="node9" class="node">
<title>src/components/generics/infoPage.tsx</title>
<g id="a_node9"><a xlink:href="src/components/generics/infoPage.tsx" xlink:title="infoPage.tsx">
<path fill="#ccffcc" stroke="black" d="M247,-556C247,-556 188,-556 188,-556 185,-556 182,-553 182,-550 182,-550 182,-544 182,-544 182,-541 185,-538 188,-538 188,-538 247,-538 247,-538 250,-538 253,-541 253,-544 253,-544 253,-550 253,-550 253,-553 250,-556 247,-556"/>
<text text-anchor="middle" x="217.5" y="-544.8" font-family="Helvetica,sans-Serif" font-size="9.00">infoPage.tsx</text>
</a>
</g>
</g>
<!-- src/components/generics/prizeHeading.tsx -->
<g id="node10" class="node">
<title>src/components/generics/prizeHeading.tsx</title>
<g id="a_node10"><a xlink:href="src/components/generics/prizeHeading.tsx" xlink:title="prizeHeading.tsx">
<path fill="#ccffcc" stroke="black" d="M257.5,-526C257.5,-526 177.5,-526 177.5,-526 174.5,-526 171.5,-523 171.5,-520 171.5,-520 171.5,-514 171.5,-514 171.5,-511 174.5,-508 177.5,-508 177.5,-508 257.5,-508 257.5,-508 260.5,-508 263.5,-511 263.5,-514 263.5,-514 263.5,-520 263.5,-520 263.5,-523 260.5,-526 257.5,-526"/>
<text text-anchor="middle" x="217.5" y="-514.8" font-family="Helvetica,sans-Serif" font-size="9.00">prizeHeading.tsx</text>
</a>
</g>
</g>
<!-- src/components/generics/prizeListItem.tsx -->
<g id="node11" class="node">
<title>src/components/generics/prizeListItem.tsx</title>
<g id="a_node11"><a xlink:href="src/components/generics/prizeListItem.tsx" xlink:title="prizeListItem.tsx">
<path fill="#bbfeff" stroke="black" d="M257.5,-346C257.5,-346 177.5,-346 177.5,-346 174.5,-346 171.5,-343 171.5,-340 171.5,-340 171.5,-334 171.5,-334 171.5,-331 174.5,-328 177.5,-328 177.5,-328 257.5,-328 257.5,-328 260.5,-328 263.5,-331 263.5,-334 263.5,-334 263.5,-340 263.5,-340 263.5,-343 260.5,-346 257.5,-346"/>
<text text-anchor="middle" x="217.5" y="-334.8" font-family="Helvetica,sans-Serif" font-size="9.00">prizeListItem.tsx</text>
</a>
</g>
</g>
<!-- src/components/generics/share.tsx -->
<g id="node12" class="node">
<title>src/components/generics/share.tsx</title>
<g id="a_node12"><a xlink:href="src/components/generics/share.tsx" xlink:title="share.tsx">
<path fill="#ccffcc" stroke="black" d="M240.5,-466C240.5,-466 194.5,-466 194.5,-466 191.5,-466 188.5,-463 188.5,-460 188.5,-460 188.5,-454 188.5,-454 188.5,-451 191.5,-448 194.5,-448 194.5,-448 240.5,-448 240.5,-448 243.5,-448 246.5,-451 246.5,-454 246.5,-454 246.5,-460 246.5,-460 246.5,-463 243.5,-466 240.5,-466"/>
<text text-anchor="middle" x="217.5" y="-454.8" font-family="Helvetica,sans-Serif" font-size="9.00">share.tsx</text>
</a>
</g>
</g>
<!-- src/components/generics/styled.tsx -->
<g id="node13" class="node">
<title>src/components/generics/styled.tsx</title>
<g id="a_node13"><a xlink:href="src/components/generics/styled.tsx" xlink:title="styled.tsx">
<path fill="#ccffcc" stroke="black" d="M241.5,-436C241.5,-436 193.5,-436 193.5,-436 190.5,-436 187.5,-433 187.5,-430 187.5,-430 187.5,-424 187.5,-424 187.5,-421 190.5,-418 193.5,-418 193.5,-418 241.5,-418 241.5,-418 244.5,-418 247.5,-421 247.5,-424 247.5,-424 247.5,-430 247.5,-430 247.5,-433 244.5,-436 241.5,-436"/>
<text text-anchor="middle" x="217.5" y="-424.8" font-family="Helvetica,sans-Serif" font-size="9.00">styled.tsx</text>
</a>
</g>
</g>
<!-- src/components/generics/svg/appStore.tsx -->
<g id="node14" class="node">
<title>src/components/generics/svg/appStore.tsx</title>
<g id="a_node14"><a xlink:href="src/components/generics/svg/appStore.tsx" xlink:title="appStore.tsx">
<path fill="#ccffcc" stroke="black" d="M248.5,-920C248.5,-920 186.5,-920 186.5,-920 183.5,-920 180.5,-917 180.5,-914 180.5,-914 180.5,-908 180.5,-908 180.5,-905 183.5,-902 186.5,-902 186.5,-902 248.5,-902 248.5,-902 251.5,-902 254.5,-905 254.5,-908 254.5,-908 254.5,-914 254.5,-914 254.5,-917 251.5,-920 248.5,-920"/>
<text text-anchor="middle" x="217.5" y="-908.8" font-family="Helvetica,sans-Serif" font-size="9.00">appStore.tsx</text>
</a>
</g>
</g>
<!-- src/components/generics/svg/edenorMide.tsx -->
<g id="node15" class="node">
<title>src/components/generics/svg/edenorMide.tsx</title>
<g id="a_node15"><a xlink:href="src/components/generics/svg/edenorMide.tsx" xlink:title="edenorMide.tsx">
<path fill="#ccffcc" stroke="black" d="M254.5,-890C254.5,-890 180.5,-890 180.5,-890 177.5,-890 174.5,-887 174.5,-884 174.5,-884 174.5,-878 174.5,-878 174.5,-875 177.5,-872 180.5,-872 180.5,-872 254.5,-872 254.5,-872 257.5,-872 260.5,-875 260.5,-878 260.5,-878 260.5,-884 260.5,-884 260.5,-887 257.5,-890 254.5,-890"/>
<text text-anchor="middle" x="217.5" y="-878.8" font-family="Helvetica,sans-Serif" font-size="9.00">edenorMide.tsx</text>
</a>
</g>
</g>
<!-- src/components/generics/svg/googlePlay.tsx -->
<g id="node16" class="node">
<title>src/components/generics/svg/googlePlay.tsx</title>
<g id="a_node16"><a xlink:href="src/components/generics/svg/googlePlay.tsx" xlink:title="googlePlay.tsx">
<path fill="#ccffcc" stroke="black" d="M251.5,-860C251.5,-860 183.5,-860 183.5,-860 180.5,-860 177.5,-857 177.5,-854 177.5,-854 177.5,-848 177.5,-848 177.5,-845 180.5,-842 183.5,-842 183.5,-842 251.5,-842 251.5,-842 254.5,-842 257.5,-845 257.5,-848 257.5,-848 257.5,-854 257.5,-854 257.5,-857 254.5,-860 251.5,-860"/>
<text text-anchor="middle" x="217.5" y="-848.8" font-family="Helvetica,sans-Serif" font-size="9.00">googlePlay.tsx</text>
</a>
</g>
</g>
<!-- src/components/generics/svg/tapLogo.tsx -->
<g id="node17" class="node">
<title>src/components/generics/svg/tapLogo.tsx</title>
<g id="a_node17"><a xlink:href="src/components/generics/svg/tapLogo.tsx" xlink:title="tapLogo.tsx">
<path fill="#ccffcc" stroke="black" d="M246,-830C246,-830 189,-830 189,-830 186,-830 183,-827 183,-824 183,-824 183,-818 183,-818 183,-815 186,-812 189,-812 189,-812 246,-812 246,-812 249,-812 252,-815 252,-818 252,-818 252,-824 252,-824 252,-827 249,-830 246,-830"/>
<text text-anchor="middle" x="217.5" y="-818.8" font-family="Helvetica,sans-Serif" font-size="9.00">tapLogo.tsx</text>
</a>
</g>
</g>
<!-- src/components/generics/svg/tapLogoColor.tsx -->
<g id="node18" class="node">
<title>src/components/generics/svg/tapLogoColor.tsx</title>
<g id="a_node18"><a xlink:href="src/components/generics/svg/tapLogoColor.tsx" xlink:title="tapLogoColor.tsx">
<path fill="#ccffcc" stroke="black" d="M257,-800C257,-800 178,-800 178,-800 175,-800 172,-797 172,-794 172,-794 172,-788 172,-788 172,-785 175,-782 178,-782 178,-782 257,-782 257,-782 260,-782 263,-785 263,-788 263,-788 263,-794 263,-794 263,-797 260,-800 257,-800"/>
<text text-anchor="middle" x="217.5" y="-788.8" font-family="Helvetica,sans-Serif" font-size="9.00">tapLogoColor.tsx</text>
</a>
</g>
</g>
<!-- src/components/generics/svg/tapLogoInverted.tsx -->
<g id="node19" class="node">
<title>src/components/generics/svg/tapLogoInverted.tsx</title>
<g id="a_node19"><a xlink:href="src/components/generics/svg/tapLogoInverted.tsx" xlink:title="tapLogoInverted.tsx">
<path fill="#ccffcc" stroke="black" d="M265,-770C265,-770 170,-770 170,-770 167,-770 164,-767 164,-764 164,-764 164,-758 164,-758 164,-755 167,-752 170,-752 170,-752 265,-752 265,-752 268,-752 271,-755 271,-758 271,-758 271,-764 271,-764 271,-767 268,-770 265,-770"/>
<text text-anchor="middle" x="217.5" y="-758.8" font-family="Helvetica,sans-Serif" font-size="9.00">tapLogoInverted.tsx</text>
</a>
</g>
</g>
<!-- src/components/generics/textInput.tsx -->
<g id="node20" class="node">
<title>src/components/generics/textInput.tsx</title>
<g id="a_node20"><a xlink:href="src/components/generics/textInput.tsx" xlink:title="textInput.tsx">
<path fill="#ccffcc" stroke="black" d="M249.5,-406C249.5,-406 185.5,-406 185.5,-406 182.5,-406 179.5,-403 179.5,-400 179.5,-400 179.5,-394 179.5,-394 179.5,-391 182.5,-388 185.5,-388 185.5,-388 249.5,-388 249.5,-388 252.5,-388 255.5,-391 255.5,-394 255.5,-394 255.5,-400 255.5,-400 255.5,-403 252.5,-406 249.5,-406"/>
<text text-anchor="middle" x="217.5" y="-394.8" font-family="Helvetica,sans-Serif" font-size="9.00">textInput.tsx</text>
</a>
</g>
</g>
<!-- src/components/generics/userInfoBox.tsx -->
<g id="node21" class="node">
<title>src/components/generics/userInfoBox.tsx</title>
<g id="a_node21"><a xlink:href="src/components/generics/userInfoBox.tsx" xlink:title="userInfoBox.tsx">
<path fill="#ccffcc" stroke="black" d="M254.5,-376C254.5,-376 180.5,-376 180.5,-376 177.5,-376 174.5,-373 174.5,-370 174.5,-370 174.5,-364 174.5,-364 174.5,-361 177.5,-358 180.5,-358 180.5,-358 254.5,-358 254.5,-358 257.5,-358 260.5,-361 260.5,-364 260.5,-364 260.5,-370 260.5,-370 260.5,-373 257.5,-376 254.5,-376"/>
<text text-anchor="middle" x="217.5" y="-364.8" font-family="Helvetica,sans-Serif" font-size="9.00">userInfoBox.tsx</text>
</a>
</g>
</g>
<!-- src/components/generics/viewWrapper.tsx -->
<g id="node22" class="node">
<title>src/components/generics/viewWrapper.tsx</title>
<g id="a_node22"><a xlink:href="src/components/generics/viewWrapper.tsx" xlink:title="viewWrapper.tsx">
<path fill="#bbfeff" stroke="black" d="M257,-496C257,-496 178,-496 178,-496 175,-496 172,-493 172,-490 172,-490 172,-484 172,-484 172,-481 175,-478 178,-478 178,-478 257,-478 257,-478 260,-478 263,-481 263,-484 263,-484 263,-490 263,-490 263,-493 260,-496 257,-496"/>
<text text-anchor="middle" x="217.5" y="-484.8" font-family="Helvetica,sans-Serif" font-size="9.00">viewWrapper.tsx</text>
</a>
</g>
</g>
<!-- src/components/header.tsx -->
<g id="node23" class="node">
<title>src/components/header.tsx</title>
<g id="a_node23"><a xlink:href="src/components/header.tsx" xlink:title="header.tsx">
<path fill="#ccffcc" stroke="black" d="M108,-762C108,-762 56,-762 56,-762 53,-762 50,-759 50,-756 50,-756 50,-750 50,-750 50,-747 53,-744 56,-744 56,-744 108,-744 108,-744 111,-744 114,-747 114,-750 114,-750 114,-756 114,-756 114,-759 111,-762 108,-762"/>
<text text-anchor="middle" x="82" y="-750.8" font-family="Helvetica,sans-Serif" font-size="9.00">header.tsx</text>
</a>
</g>
</g>
<!-- src/components/home/benefitsArray.tsx -->
<g id="node24" class="node">
<title>src/components/home/benefitsArray.tsx</title>
<g id="a_node24"><a xlink:href="src/components/home/benefitsArray.tsx" xlink:title="benefitsArray.tsx">
<path fill="#ccffcc" stroke="black" d="M122,-946C122,-946 42,-946 42,-946 39,-946 36,-943 36,-940 36,-940 36,-934 36,-934 36,-931 39,-928 42,-928 42,-928 122,-928 122,-928 125,-928 128,-931 128,-934 128,-934 128,-940 128,-940 128,-943 125,-946 122,-946"/>
<text text-anchor="middle" x="82" y="-934.8" font-family="Helvetica,sans-Serif" font-size="9.00">benefitsArray.tsx</text>
</a>
</g>
</g>
<!-- src/components/home/button.tsx -->
<g id="node25" class="node">
<title>src/components/home/button.tsx</title>
<g id="a_node25"><a xlink:href="src/components/home/button.tsx" xlink:title="button.tsx">
<path fill="#ccffcc" stroke="black" d="M108,-916C108,-916 56,-916 56,-916 53,-916 50,-913 50,-910 50,-910 50,-904 50,-904 50,-901 53,-898 56,-898 56,-898 108,-898 108,-898 111,-898 114,-901 114,-904 114,-904 114,-910 114,-910 114,-913 111,-916 108,-916"/>
<text text-anchor="middle" x="82" y="-904.8" font-family="Helvetica,sans-Serif" font-size="9.00">button.tsx</text>
</a>
</g>
</g>
<!-- src/components/home/downloadLinks.tsx -->
<g id="node26" class="node">
<title>src/components/home/downloadLinks.tsx</title>
<g id="a_node26"><a xlink:href="src/components/home/downloadLinks.tsx" xlink:title="downloadLinks.tsx">
<path fill="#ccffcc" stroke="black" d="M126,-886C126,-886 38,-886 38,-886 35,-886 32,-883 32,-880 32,-880 32,-874 32,-874 32,-871 35,-868 38,-868 38,-868 126,-868 126,-868 129,-868 132,-871 132,-874 132,-874 132,-880 132,-880 132,-883 129,-886 126,-886"/>
<text text-anchor="middle" x="82" y="-874.8" font-family="Helvetica,sans-Serif" font-size="9.00">downloadLinks.tsx</text>
</a>
</g>
</g>
<!-- src/components/home/footer.tsx -->
<g id="node27" class="node">
<title>src/components/home/footer.tsx</title>
<g id="a_node27"><a xlink:href="src/components/home/footer.tsx" xlink:title="footer.tsx">
<path fill="#ccffcc" stroke="black" d="M105.5,-856C105.5,-856 58.5,-856 58.5,-856 55.5,-856 52.5,-853 52.5,-850 52.5,-850 52.5,-844 52.5,-844 52.5,-841 55.5,-838 58.5,-838 58.5,-838 105.5,-838 105.5,-838 108.5,-838 111.5,-841 111.5,-844 111.5,-844 111.5,-850 111.5,-850 111.5,-853 108.5,-856 105.5,-856"/>
<text text-anchor="middle" x="82" y="-844.8" font-family="Helvetica,sans-Serif" font-size="9.00">footer.tsx</text>
</a>
</g>
</g>
<!-- src/components/home/header.tsx -->
<g id="node28" class="node">
<title>src/components/home/header.tsx</title>
<g id="a_node28"><a xlink:href="src/components/home/header.tsx" xlink:title="header.tsx">
<path fill="#ccffcc" stroke="black" d="M108,-826C108,-826 56,-826 56,-826 53,-826 50,-823 50,-820 50,-820 50,-814 50,-814 50,-811 53,-808 56,-808 56,-808 108,-808 108,-808 111,-808 114,-811 114,-814 114,-814 114,-820 114,-820 114,-823 111,-826 108,-826"/>
<text text-anchor="middle" x="82" y="-814.8" font-family="Helvetica,sans-Serif" font-size="9.00">header.tsx</text>
</a>
</g>
</g>
<!-- src/components/home/instructions.tsx -->
<g id="node29" class="node">
<title>src/components/home/instructions.tsx</title>
<g id="a_node29"><a xlink:href="src/components/home/instructions.tsx" xlink:title="instructions.tsx">
<path fill="#ccffcc" stroke="black" d="M119,-796C119,-796 45,-796 45,-796 42,-796 39,-793 39,-790 39,-790 39,-784 39,-784 39,-781 42,-778 45,-778 45,-778 119,-778 119,-778 122,-778 125,-781 125,-784 125,-784 125,-790 125,-790 125,-793 122,-796 119,-796"/>
<text text-anchor="middle" x="82" y="-784.8" font-family="Helvetica,sans-Serif" font-size="9.00">instructions.tsx</text>
</a>
</g>
</g>
<!-- src/components/layout.tsx -->
<g id="node30" class="node">
<title>src/components/layout.tsx</title>
<g id="a_node30"><a xlink:href="src/components/layout.tsx" xlink:title="layout.tsx">
<path fill="#ccffcc" stroke="black" d="M106.5,-732C106.5,-732 57.5,-732 57.5,-732 54.5,-732 51.5,-729 51.5,-726 51.5,-726 51.5,-720 51.5,-720 51.5,-717 54.5,-714 57.5,-714 57.5,-714 106.5,-714 106.5,-714 109.5,-714 112.5,-717 112.5,-720 112.5,-720 112.5,-726 112.5,-726 112.5,-729 109.5,-732 106.5,-732"/>
<text text-anchor="middle" x="82" y="-720.8" font-family="Helvetica,sans-Serif" font-size="9.00">layout.tsx</text>
</a>
</g>
</g>
<!-- src/components/message.tsx -->
<g id="node31" class="node">
<title>src/components/message.tsx</title>
<g id="a_node31"><a xlink:href="src/components/message.tsx" xlink:title="message.tsx">
<path fill="#bbfeff" stroke="black" d="M112.5,-672C112.5,-672 51.5,-672 51.5,-672 48.5,-672 45.5,-669 45.5,-666 45.5,-666 45.5,-660 45.5,-660 45.5,-657 48.5,-654 51.5,-654 51.5,-654 112.5,-654 112.5,-654 115.5,-654 118.5,-657 118.5,-660 118.5,-660 118.5,-666 118.5,-666 118.5,-669 115.5,-672 112.5,-672"/>
<text text-anchor="middle" x="82" y="-660.8" font-family="Helvetica,sans-Serif" font-size="9.00">message.tsx</text>
</a>
</g>
</g>
<!-- src/components/message.tsx&#45;&gt;src/components/generics/button.tsx -->
<g id="edge1" class="edge">
<title>src/components/message.tsx&#45;&gt;src/components/generics/button.tsx</title>
<path fill="none" stroke="#000000" stroke-width="2" stroke-opacity="0.200000" d="M118.68,-666.21C126.58,-668.47 134.29,-672.14 140,-678 150.83,-689.12 136.94,-701.11 148,-712 156.27,-720.14 167.88,-724.3 179.2,-726.31"/>
<polygon fill="#000000" fill-opacity="0.200000" stroke="#000000" stroke-width="2" stroke-opacity="0.200000" points="179.19,-728.44 185.43,-727.22 179.8,-724.28 179.19,-728.44"/>
</g>
<!-- src/components/message.tsx&#45;&gt;src/components/generics/centered.tsx -->
<g id="edge2" class="edge">
<title>src/components/message.tsx&#45;&gt;src/components/generics/centered.tsx</title>
<path fill="none" stroke="#000000" stroke-width="2" stroke-opacity="0.200000" d="M118.63,-671.16C125.79,-673.14 133.2,-675.44 140,-678 143.72,-679.4 144.25,-680.68 148,-682 156.39,-684.97 165.58,-687.46 174.42,-689.51"/>
<polygon fill="#000000" fill-opacity="0.200000" stroke="#000000" stroke-width="2" stroke-opacity="0.200000" points="174.16,-691.61 180.48,-690.86 175.08,-687.51 174.16,-691.61"/>
</g>
<!-- src/components/message.tsx&#45;&gt;src/components/generics/viewWrapper.tsx -->
<g id="edge3" class="edge">
<title>src/components/message.tsx&#45;&gt;src/components/generics/viewWrapper.tsx</title>
<path fill="none" stroke="#000000" stroke-width="2" stroke-opacity="0.200000" d="M83.81,-653.63C86.76,-625.8 99.41,-543.04 148,-502 153.2,-497.61 159.39,-494.42 165.9,-492.12"/>
<polygon fill="#000000" fill-opacity="0.200000" stroke="#000000" stroke-width="2" stroke-opacity="0.200000" points="166.83,-494.03 171.94,-490.25 165.59,-490.02 166.83,-494.03"/>
</g>
<!-- src/components/prizeList.tsx -->
<g id="node32" class="node">
<title>src/components/prizeList.tsx</title>
<g id="a_node32"><a xlink:href="src/components/prizeList.tsx" xlink:title="prizeList.tsx">
<path fill="#bbfeff" stroke="black" d="M111.5,-368C111.5,-368 52.5,-368 52.5,-368 49.5,-368 46.5,-365 46.5,-362 46.5,-362 46.5,-356 46.5,-356 46.5,-353 49.5,-350 52.5,-350 52.5,-350 111.5,-350 111.5,-350 114.5,-350 117.5,-353 117.5,-356 117.5,-356 117.5,-362 117.5,-362 117.5,-365 114.5,-368 111.5,-368"/>
<text text-anchor="middle" x="82" y="-356.8" font-family="Helvetica,sans-Serif" font-size="9.00">prizeList.tsx</text>
</a>
</g>
</g>
<!-- src/components/prizeList.tsx&#45;&gt;src/components/generics/prizeListItem.tsx -->
<g id="edge4" class="edge">
<title>src/components/prizeList.tsx&#45;&gt;src/components/generics/prizeListItem.tsx</title>
<path fill="none" stroke="#000000" stroke-width="2" stroke-opacity="0.200000" d="M117.73,-353.28C132.19,-350.89 149.27,-348.08 165.13,-345.46"/>
<polygon fill="#000000" fill-opacity="0.200000" stroke="#000000" stroke-width="2" stroke-opacity="0.200000" points="165.8,-347.48 171.38,-344.44 165.11,-343.34 165.8,-347.48"/>
</g>
<!-- src/components/roulette.tsx -->
<g id="node33" class="node">
<title>src/components/roulette.tsx</title>
<g id="a_node33"><a xlink:href="src/components/roulette.tsx" xlink:title="roulette.tsx">
<path fill="#bbfeff" stroke="black" d="M110,-702C110,-702 54,-702 54,-702 51,-702 48,-699 48,-696 48,-696 48,-690 48,-690 48,-687 51,-684 54,-684 54,-684 110,-684 110,-684 113,-684 116,-687 116,-690 116,-690 116,-696 116,-696 116,-699 113,-702 110,-702"/>
<text text-anchor="middle" x="82" y="-690.8" font-family="Helvetica,sans-Serif" font-size="9.00">roulette.tsx</text>
</a>
</g>
</g>
<!-- src/components/roulette.tsx&#45;&gt;src/assets/center.png -->
<g id="edge5" class="edge">
<title>src/components/roulette.tsx&#45;&gt;src/assets/center.png</title>
<path fill="none" stroke="#000000" stroke-width="2" stroke-opacity="0.200000" d="M116.02,-694.49C125.16,-696.6 134.16,-700.61 140,-708 162.74,-736.77 124.66,-1009.71 148,-1038 155.45,-1047.04 166.98,-1051.4 178.47,-1053.33"/>
<polygon fill="#000000" fill-opacity="0.200000" stroke="#000000" stroke-width="2" stroke-opacity="0.200000" points="178.23,-1055.41 184.45,-1054.12 178.78,-1051.25 178.23,-1055.41"/>
</g>
<!-- src/components/roulette.tsx&#45;&gt;src/assets/pointer.png -->
<g id="edge6" class="edge">
<title>src/components/roulette.tsx&#45;&gt;src/assets/pointer.png</title>
<path fill="none" stroke="#000000" stroke-width="2" stroke-opacity="0.200000" d="M116.28,-694.59C125.31,-696.72 134.19,-700.72 140,-708 156.71,-728.95 137.81,-924.22 148,-949 158.56,-974.68 182.32,-996.94 198.88,-1010.17"/>
<polygon fill="#000000" fill-opacity="0.200000" stroke="#000000" stroke-width="2" stroke-opacity="0.200000" points="197.74,-1011.94 203.76,-1013.97 200.32,-1008.63 197.74,-1011.94"/>
</g>
<!-- src/components/seo.tsx -->
<g id="node34" class="node">
<title>src/components/seo.tsx</title>
<g id="a_node34"><a xlink:href="src/components/seo.tsx" xlink:title="seo.tsx">
<path fill="#ccffcc" stroke="black" d="M103,-338C103,-338 61,-338 61,-338 58,-338 55,-335 55,-332 55,-332 55,-326 55,-326 55,-323 58,-320 61,-320 61,-320 103,-320 103,-320 106,-320 109,-323 109,-326 109,-326 109,-332 109,-332 109,-335 106,-338 103,-338"/>
<text text-anchor="middle" x="82" y="-326.8" font-family="Helvetica,sans-Serif" font-size="9.00">seo.tsx</text>
</a>
</g>
</g>
<!-- src/declarations.d.ts -->
<g id="node35" class="node">
<title>src/declarations.d.ts</title>
<g id="a_node35"><a xlink:href="src/declarations.d.ts" xlink:title="declarations.d.ts">
<path fill="#ccffcc" stroke="black" d="M122,-34C122,-34 42,-34 42,-34 39,-34 36,-31 36,-28 36,-28 36,-22 36,-22 36,-19 39,-16 42,-16 42,-16 122,-16 122,-16 125,-16 128,-19 128,-22 128,-22 128,-28 128,-28 128,-31 125,-34 122,-34"/>
<text text-anchor="middle" x="82" y="-22.8" font-family="Helvetica,sans-Serif" font-size="9.00">declarations.d.ts</text>
</a>
</g>
</g>
<!-- src/images/error_illus.png -->
<g id="node36" class="node">
<title>src/images/error_illus.png</title>
<g id="a_node36"><a xlink:href="src/images/error_illus.png" xlink:title="error_illus.png">
<path fill="#ffffcc" stroke="black" d="M252,-248C252,-248 183,-248 183,-248 180,-248 177,-245 177,-242 177,-242 177,-236 177,-236 177,-233 180,-230 183,-230 183,-230 252,-230 252,-230 255,-230 258,-233 258,-236 258,-236 258,-242 258,-242 258,-245 255,-248 252,-248"/>
<text text-anchor="middle" x="217.5" y="-236.8" font-family="Helvetica,sans-Serif" font-size="9.00">error_illus.png</text>
</a>
</g>
</g>
<!-- src/pages/404.tsx -->
<g id="node37" class="node">
<title>src/pages/404.tsx</title>
<g id="a_node37"><a xlink:href="src/pages/404.tsx" xlink:title="404.tsx">
<path fill="#ccffcc" stroke="black" d="M103,-278C103,-278 61,-278 61,-278 58,-278 55,-275 55,-272 55,-272 55,-266 55,-266 55,-263 58,-260 61,-260 61,-260 103,-260 103,-260 106,-260 109,-263 109,-266 109,-266 109,-272 109,-272 109,-275 106,-278 103,-278"/>
<text text-anchor="middle" x="82" y="-266.8" font-family="Helvetica,sans-Serif" font-size="9.00">404.tsx</text>
</a>
</g>
</g>
<!-- src/pages/error.tsx -->
<g id="node38" class="node">
<title>src/pages/error.tsx</title>
<g id="a_node38"><a xlink:href="src/pages/error.tsx" xlink:title="error.tsx">
<path fill="#bbfeff" stroke="black" d="M103,-248C103,-248 61,-248 61,-248 58,-248 55,-245 55,-242 55,-242 55,-236 55,-236 55,-233 58,-230 61,-230 61,-230 103,-230 103,-230 106,-230 109,-233 109,-236 109,-236 109,-242 109,-242 109,-245 106,-248 103,-248"/>
<text text-anchor="middle" x="82" y="-236.8" font-family="Helvetica,sans-Serif" font-size="9.00">error.tsx</text>
</a>
</g>
</g>
<!-- src/pages/error.tsx&#45;&gt;src/images/error_illus.png -->
<g id="edge7" class="edge">
<title>src/pages/error.tsx&#45;&gt;src/images/error_illus.png</title>
<path fill="none" stroke="#000000" stroke-width="2" stroke-opacity="0.200000" d="M109.06,-239C126.6,-239 150.2,-239 170.82,-239"/>
<polygon fill="#000000" fill-opacity="0.200000" stroke="#000000" stroke-width="2" stroke-opacity="0.200000" points="170.83,-241.1 176.83,-239 170.83,-236.9 170.83,-241.1"/>
</g>
<!-- src/pages/ganador.tsx -->
<g id="node39" class="node">
<title>src/pages/ganador.tsx</title>
<g id="a_node39"><a xlink:href="src/pages/ganador.tsx" xlink:title="ganador.tsx">
<path fill="#ccffcc" stroke="black" d="M111,-218C111,-218 53,-218 53,-218 50,-218 47,-215 47,-212 47,-212 47,-206 47,-206 47,-203 50,-200 53,-200 53,-200 111,-200 111,-200 114,-200 117,-203 117,-206 117,-206 117,-212 117,-212 117,-215 114,-218 111,-218"/>
<text text-anchor="middle" x="82" y="-206.8" font-family="Helvetica,sans-Serif" font-size="9.00">ganador.tsx</text>
</a>
</g>
</g>
<!-- src/pages/index.tsx -->
<g id="node40" class="node">
<title>src/pages/index.tsx</title>
<g id="a_node40"><a xlink:href="src/pages/index.tsx" xlink:title="index.tsx">
<path fill="#ccffcc" stroke="black" d="M105,-188C105,-188 59,-188 59,-188 56,-188 53,-185 53,-182 53,-182 53,-176 53,-176 53,-173 56,-170 59,-170 59,-170 105,-170 105,-170 108,-170 111,-173 111,-176 111,-176 111,-182 111,-182 111,-185 108,-188 105,-188"/>
<text text-anchor="middle" x="82" y="-176.8" font-family="Helvetica,sans-Serif" font-size="9.00">index.tsx</text>
</a>
</g>
</g>
<!-- src/pages/play.tsx -->
<g id="node41" class="node">
<title>src/pages/play.tsx</title>
<g id="a_node41"><a xlink:href="src/pages/play.tsx" xlink:title="play.tsx">
<path fill="#ccffcc" stroke="black" d="M103,-158C103,-158 61,-158 61,-158 58,-158 55,-155 55,-152 55,-152 55,-146 55,-146 55,-143 58,-140 61,-140 61,-140 103,-140 103,-140 106,-140 109,-143 109,-146 109,-146 109,-152 109,-152 109,-155 106,-158 103,-158"/>
<text text-anchor="middle" x="82" y="-146.8" font-family="Helvetica,sans-Serif" font-size="9.00">play.tsx</text>
</a>
</g>
</g>
<!-- src/pages/verificar.tsx -->
<g id="node42" class="node">
<title>src/pages/verificar.tsx</title>
<g id="a_node42"><a xlink:href="src/pages/verificar.tsx" xlink:title="verificar.tsx">
<path fill="#ccffcc" stroke="black" d="M110.5,-128C110.5,-128 53.5,-128 53.5,-128 50.5,-128 47.5,-125 47.5,-122 47.5,-122 47.5,-116 47.5,-116 47.5,-113 50.5,-110 53.5,-110 53.5,-110 110.5,-110 110.5,-110 113.5,-110 116.5,-113 116.5,-116 116.5,-116 116.5,-122 116.5,-122 116.5,-125 113.5,-128 110.5,-128"/>
<text text-anchor="middle" x="82" y="-116.8" font-family="Helvetica,sans-Serif" font-size="9.00">verificar.tsx</text>
</a>
</g>
</g>
<!-- src/utils/index.ts -->
<g id="node43" class="node">
<title>src/utils/index.ts</title>
<g id="a_node43"><a xlink:href="src/utils/index.ts" xlink:title="index.ts">
<path fill="#ccffcc" stroke="black" d="M103,-68C103,-68 61,-68 61,-68 58,-68 55,-65 55,-62 55,-62 55,-56 55,-56 55,-53 58,-50 61,-50 61,-50 103,-50 103,-50 106,-50 109,-53 109,-56 109,-56 109,-62 109,-62 109,-65 106,-68 103,-68"/>
<text text-anchor="middle" x="82" y="-56.8" font-family="Helvetica,sans-Serif" font-size="9.00">index.ts</text>
</a>
</g>
</g>
</g>
</svg>
